<?xml version="1.0" encoding="UTF-8"?>
<svg width="30px" height="30px" viewBox="0 0 30 30" version="1.1" xmlns="http://www.w3.org/2000/svg" xmlns:xlink="http://www.w3.org/1999/xlink">
    <!-- Generator: Sketch 41.2 (35397) - http://www.bohemiancoding.com/sketch -->
    <title>Desktop</title>
    <desc>Created with Sketch.</desc>
    <defs></defs>
    <g id="Page-1" stroke="none" stroke-width="1" fill="none" fill-rule="evenodd">
        <g id="Desktop">
            <g id="Page-1" transform="translate(1.000000, 5.000000)">
                <polygon id="Stroke-1" stroke="#575756" points="0.164171538 20.9478981 14.0715292 0.15092459 27.9794388 20.9478981"></polygon>
                <g id="Group-7" transform="translate(9.382692, 9.525452)" fill="#575756">
                    <path d="M9.26714923,7.72211753 C9.20864538,7.73525246 9.22299538,7.82719697 9.18601654,7.88302043 C9.154005,7.93172913 9.07563192,8.00342396 9.02264731,8.08551728 C8.35316462,8.15775939 7.62297038,8.12492207 6.86628385,8.12492207 L2.47132038,8.12492207 C1.76209923,8.12492207 1.04349538,8.15775939 0.355799231,8.08551728 C0.344760769,7.99521463 0.237135769,7.99412005 0.192981923,7.92461438 C0.154899231,7.86331803 0.191326154,7.76644792 0.111297308,7.72211753 L0.111297308,1.66910366 C0.182495385,1.63079344 0.167041538,1.52407213 0.192981923,1.46824868 C0.197397308,1.4573029 0.26418,1.43924237 0.274114615,1.42720202 C0.353039615,1.3401831 0.385051154,1.29913644 0.518064615,1.26629912 C0.677570385,1.22634704 0.953531923,1.26629912 1.20962423,1.26629912 L1.90173577,1.26629912 C2.40012231,1.26629912 2.89133385,1.29749458 3.24456462,1.22579975 C3.27602423,0.970215889 3.18495692,0.636917024 3.28540692,0.418548802 C3.28871846,0.410886759 3.35826077,0.385164187 3.36709154,0.37914401 C3.38033769,0.367103657 3.35384538,0.310185624 3.36709154,0.297597982 C3.38420115,0.28063203 3.47085308,0.268044388 3.48851462,0.257645902 C3.49955308,0.251078436 3.51003962,0.229734174 3.52935692,0.217146532 C3.73467231,0.0868918033 4.41464154,0.176647163 4.70936846,0.176647163 C5.01237423,0.176647163 5.57533577,0.113161665 5.80824731,0.176647163 C5.81928577,0.179383607 5.87447808,0.246700126 5.88938,0.257645902 C5.93574154,0.288294073 5.97658385,0.297597982 6.011355,0.339191929 C6.21391077,0.569600504 6.10904538,0.871703909 6.13333,1.22579975 C6.34195692,1.29913644 6.556655,1.26465725 6.78515115,1.26629912 C7.50154731,1.26903556 8.25161077,1.26356267 8.94151462,1.26629912 C9.04306846,1.34839243 9.13523962,1.42172913 9.18601654,1.50874805 C9.22189154,1.57059168 9.21306077,1.66089433 9.26714923,1.66910366 L9.26714923,7.72211753 Z M5.72711462,0.539499622 C5.11889538,0.474919546 4.25899923,0.474919546 3.65133192,0.539499622 C3.56523192,0.709706431 3.63201462,1.03151223 3.61048962,1.26629912 L5.767405,1.26629912 C5.74643192,1.03151223 5.81321462,0.709706431 5.72711462,0.539499622 L5.72711462,0.539499622 Z M2.796955,1.58865221 C2.07448769,1.58865221 1.12518,1.56019319 0.559458846,1.62915158 C0.423133846,1.80920958 0.478878077,2.07957024 0.477222308,2.3154517 C0.476118462,2.57924489 0.477222308,2.84577453 0.477222308,3.12215536 C0.477222308,3.64974174 0.446866538,4.20907087 0.518064615,4.65511122 C1.17816462,4.72844792 1.87138,4.69615788 2.553005,4.69615788 L6.78515115,4.69615788 C7.48167808,4.69615788 8.18703577,4.72844792 8.86038192,4.65511122 C8.93378769,3.97100025 8.90067231,3.10190567 8.90067231,2.39645044 C8.90067231,2.15126507 8.93268385,1.89185019 8.86038192,1.66910366 C8.57834923,1.54103808 8.24222808,1.58865221 7.92432038,1.58865221 L2.796955,1.58865221 Z M8.86038192,5.01905826 C8.81291654,5.09950971 8.72460885,5.0562739 8.65672231,5.05846305 C5.94291654,5.15040757 3.20372231,4.98950467 0.518064615,5.05846305 C0.505370385,4.99497755 0.460664615,5.06229407 0.477222308,5.14000908 C0.479981923,5.76993846 0.474462692,6.50002169 0.477222308,7.07631677 C0.478878077,7.30781992 0.445210769,7.51578966 0.518064615,7.72211753 C0.822174231,7.85182497 1.15719154,7.80311627 1.49496846,7.80311627 L7.84263577,7.80311627 C8.17710115,7.80311627 8.54688962,7.85401412 8.86038192,7.72211753 C8.93268385,7.53056646 8.89956846,7.2941377 8.90067231,7.07631677 C8.90453577,6.49837982 8.90895115,5.85859924 8.90067231,5.34086406 C8.89956846,5.23031173 8.93489154,5.10169887 8.86038192,5.01905826 L8.86038192,5.01905826 Z" id="Fill-3"></path>
                    <path d="M4.99405038,3.72701892 C5.05089846,3.8545372 5.05089846,4.0838512 4.99405038,4.21191677 C4.83233692,4.35640101 4.54588885,4.35640101 4.38417538,4.21191677 C4.32787923,4.0838512 4.32787923,3.8545372 4.38417538,3.72701892 C4.54588885,3.58362926 4.83233692,3.58362926 4.99405038,3.72701892" id="Fill-5"></path>
                </g>
            </g>
        </g>
    </g>
</svg>