<?xml version="1.0" encoding="UTF-8"?>
<svg width="30px" height="30px" viewBox="0 0 30 30" version="1.1" xmlns="http://www.w3.org/2000/svg" xmlns:xlink="http://www.w3.org/1999/xlink">
    <!-- Generator: Sketch 41.2 (35397) - http://www.bohemiancoding.com/sketch -->
    <title>Desktop</title>
    <desc>Created with Sketch.</desc>
    <defs></defs>
    <g id="Page-1" stroke="none" stroke-width="1" fill="none" fill-rule="evenodd">
        <g id="Desktop">
            <g id="Page-1" transform="translate(1.000000, 4.000000)">
                <path d="M16.9689941,16.0569596 C16.9761736,15.9605841 16.9557396,15.8894498 16.9557396,15.8125789 C16.9557396,15.7156297 16.9706509,15.6186806 16.9689941,15.537794 C16.9689941,15.4448605 16.9573964,15.3547953 16.9557396,15.2635828 C16.9485602,14.9538044 16.9601578,14.6738566 16.9557396,14.3675202 C16.8960947,14.3503103 16.8403156,14.3904668 16.7895069,14.4099713 C16.7298619,14.4329179 16.6691124,14.4558644 16.6083629,14.4822529 C16.5945562,14.4891369 16.5813018,14.4891369 16.5663905,14.4977419 C16.559211,14.5017575 16.5470611,14.5206884 16.5387771,14.526425 C16.5045365,14.541914 16.4741617,14.540193 16.4404734,14.5539609 C16.4338462,14.5579765 16.4222485,14.5786284 16.4134122,14.5843651 C16.3929783,14.594691 16.3780671,14.589528 16.3576331,14.598133 C16.3289152,14.6124746 16.3035108,14.6279635 16.2742406,14.6423051 C16.2217751,14.6652516 16.1593688,14.6859035 16.1063511,14.7145867 C16.1002761,14.7180287 16.089783,14.7352386 16.0798422,14.7421226 C16.0627219,14.7530222 16.0472584,14.7461382 16.0235108,14.7564641 C16.0168836,14.7599061 16.005286,14.7811317 15.9964497,14.7868683 C15.976568,14.7971943 15.9611045,14.7914576 15.9412229,14.8006362 C15.9174753,14.8109622 15.8986982,14.8235828 15.8848915,14.8287458 C15.8556213,14.8407927 15.8373964,14.8499713 15.8153057,14.8585763 C15.7987377,14.8654602 15.7816174,14.8620183 15.7595266,14.8729179 C15.7528994,14.8763598 15.7407495,14.8975854 15.7324655,14.9010274 C15.7125838,14.9096323 15.6904931,14.9096323 15.6766864,14.9165163 C15.6529389,14.9274159 15.6341617,14.9394628 15.6209073,14.9451995 C15.5999211,14.9538044 15.5866667,14.9538044 15.5645759,14.9589674 C15.5540828,14.9624094 15.5562919,14.9710143 15.5513215,14.9727353 C15.4933333,14.9974029 15.4292702,15.0243651 15.3850888,15.0450169 C15.3768047,15.0507536 15.362998,15.0593585 15.3563708,15.0610795 C15.3342801,15.0610795 15.3160552,15.0823051 15.3005917,15.089189 C15.2768442,15.101236 15.2597239,15.1104146 15.2310059,15.1172986 C15.2227219,15.1207405 15.218856,15.1316402 15.2171992,15.1333611 C15.1531361,15.152292 15.1172387,15.154013 15.0653254,15.1752386 C15.0228008,15.1930222 14.9703353,15.2194107 14.9394083,15.2331786 C14.9140039,15.2457992 14.8990927,15.2549778 14.8698225,15.2635828 C14.8366864,15.2721877 14.7671006,15.3198018 14.7450099,15.3198018 C14.7295464,15.3215228 14.7361736,15.3318488 14.7312032,15.3358644 C14.7008284,15.3479113 14.66714,15.3496323 14.6334517,15.3639739 C14.6262722,15.3674159 14.6141223,15.3880678 14.6058383,15.3920834 C14.5859566,15.4024094 14.5638659,15.4006884 14.5500592,15.4075724 C14.5191321,15.420193 14.5091913,15.4339609 14.4804734,15.4356819 C14.4655621,15.4374029 14.4721893,15.4483025 14.4672189,15.4500235 C14.4346351,15.4637914 14.4009467,15.4655124 14.3689152,15.479854 C14.3617357,15.481575 14.3501381,15.5045215 14.3413018,15.5079635 C14.3230769,15.5171421 14.2993294,15.5171421 14.286075,15.5217314 C14.1971598,15.5572986 14.1839053,15.5521356 14.1043787,15.5217314 C14.061854,15.5062425 14.0336884,15.4901799 13.9944773,15.479854 C13.9845365,15.476412 13.9828797,15.4655124 13.9790138,15.4655124 C13.9569231,15.4569074 13.9447732,15.4603494 13.9248915,15.4500235 C13.9182643,15.4483025 13.9044576,15.4253559 13.8961736,15.421914 C13.8757396,15.4127353 13.8553057,15.4144563 13.8403945,15.4075724 C13.82714,15.4006884 13.8149901,15.4006884 13.7995266,15.3920834 C13.7912426,15.3880678 13.7813018,15.3691369 13.7708087,15.3639739 C13.7437475,15.3513533 13.7028797,15.3479113 13.6741617,15.3358644 C13.6669822,15.3318488 13.6741617,15.3232438 13.6609073,15.3198018 C13.6404734,15.3157862 13.6316371,15.3146389 13.6183826,15.3054602 C13.5808284,15.2807927 13.5233925,15.2756297 13.4930178,15.2635828 C13.4858383,15.2595671 13.4725838,15.2389153 13.4659566,15.2331786 C13.4521499,15.2262947 13.433925,15.2245737 13.423432,15.2194107 C13.4013412,15.2085111 13.3659961,15.1913012 13.3538462,15.1913012 C13.3317554,15.1895802 13.3135306,15.1683546 13.2986193,15.1614707 C13.2914398,15.1580287 13.2776331,15.1471291 13.2710059,15.1471291 C13.2555424,15.1454081 13.2627219,15.1350821 13.2571992,15.1333611 C13.2290335,15.1190196 13.1876134,15.1155776 13.1594477,15.102957 C13.1522682,15.101236 13.1594477,15.092631 13.145641,15.089189 C13.1252071,15.0840261 13.1169231,15.0840261 13.1031164,15.0754211 C13.0793688,15.0593585 13.0523077,15.0536219 13.0340828,15.0450169 C13.0269034,15.041575 13.0136489,15.031249 13.0064694,15.031249 C12.9915582,15.031249 12.9987377,15.0203494 12.993215,15.0169074 C12.9628402,15.0031395 12.9274951,15.0031395 12.8949112,14.9887979 C12.8877318,14.9853559 12.8766864,14.9624094 12.8678501,14.9589674 C12.8474162,14.9503625 12.8253254,14.9503625 12.812071,14.9451995 C12.7540828,14.9205319 12.7016174,14.8993064 12.6441815,14.8729179 C12.6204339,14.8620183 12.6022091,14.8499713 12.5884024,14.8448083 C12.5596844,14.8321877 12.5409073,14.8235828 12.5188166,14.8144042 C12.5016963,14.8075202 12.486785,14.8092412 12.4646943,14.8006362 C12.4580671,14.7971943 12.4448126,14.7759687 12.4359763,14.7708057 C12.4171992,14.7622008 12.4006312,14.7656428 12.379645,14.7564641 C12.37357,14.7530222 12.379645,14.7461382 12.3663905,14.7421226 C12.3459566,14.7375332 12.3393294,14.7375332 12.326075,14.7283546 C12.3006706,14.7128657 12.2410256,14.6859035 12.2277712,14.6841825 C12.2123077,14.6841825 12.2189349,14.6738566 12.2139645,14.6704146 C12.1835897,14.6583677 12.144931,14.654352 12.1156607,14.6423051 C12.1090335,14.6388631 12.0974359,14.6159166 12.0885996,14.6124746 C12.0797633,14.6090326 12.0681657,14.6141956 12.0615385,14.6124746 C12.0361341,14.6050169 12.0245365,14.591249 12.0057594,14.5843651 C11.9869822,14.5769074 11.9715187,14.5786284 11.949428,14.5700235 C11.9428008,14.5665815 11.9295464,14.5453559 11.9207101,14.540193 C11.9019329,14.5292934 11.8853649,14.53503 11.8665878,14.526425 C11.8378698,14.5120834 11.8108087,14.4942999 11.7815385,14.4822529 C11.7263116,14.4575854 11.6583826,14.4363598 11.6020513,14.4099713 C11.5959763,14.4082503 11.6003945,14.3996454 11.58714,14.3956297 C11.5689152,14.3904668 11.5600789,14.3904668 11.5468245,14.3818618 C11.5076134,14.3554733 11.4617751,14.3623572 11.434714,14.3239218 L11.4076529,14.3239218 C11.3888757,14.3290847 11.3789349,14.3428527 11.3789349,14.3675202 L11.3789349,16.4619661 C11.442998,16.5267901 11.5230769,16.5864511 11.58714,16.6357862 C11.6108876,16.6535698 11.624142,16.6552907 11.6429191,16.6638957 C11.6478895,16.6661904 11.6517554,16.6885632 11.6567258,16.6920052 C11.6683235,16.7011838 11.6887574,16.7011838 11.6992505,16.7080678 C11.7025641,16.7097888 11.7058777,16.7166728 11.7125049,16.7224094 C11.7224458,16.7275724 11.7312821,16.7292934 11.7412229,16.7361773 C11.7500592,16.7413403 11.76,16.7591239 11.768284,16.7642868 C11.7738067,16.7677288 11.7920316,16.7786284 11.7975542,16.7803494 C11.8124655,16.7803494 11.8025247,16.7889544 11.8108087,16.7941173 C11.836213,16.8119009 11.8665878,16.8222269 11.8942012,16.8365684 C11.9019329,16.8417314 11.912426,16.861236 11.9207101,16.866399 C11.941144,16.8772986 11.9582643,16.8698409 11.9770414,16.8807405 C11.9853254,16.8859035 11.9952663,16.9036871 12.0057594,16.9088501 C12.0101775,16.912292 12.0295069,16.924339 12.0328205,16.924339 C12.0549112,16.924339 12.0753452,16.9455645 12.0885996,16.9530222 C12.0957791,16.9558905 12.1106903,16.9667901 12.1156607,16.9667901 C12.1377515,16.9685111 12.1581854,16.9897366 12.1714398,16.9966206 C12.1802761,17.0000626 12.1940828,17.0109622 12.2001578,17.0109622 C12.2205917,17.0126832 12.2410256,17.0316141 12.2548323,17.038498 C12.2631164,17.0425137 12.2769231,17.0528396 12.2835503,17.0545606 C12.305641,17.0545606 12.3244181,17.0757862 12.3393294,17.0832438 C12.3558974,17.0901278 12.37357,17.0878331 12.3951085,17.0970117 C12.4017357,17.1004537 12.4138856,17.1216793 12.4227219,17.1268422 C12.4426036,17.1371682 12.4580671,17.1320052 12.4779487,17.1411838 C12.7794872,17.2691108 13.0948323,17.369502 13.4504931,17.4297366 C13.7470611,17.480219 14.0635108,17.5089022 14.3976331,17.4876767 C14.5384615,17.4790717 14.7057988,17.4469465 14.8278501,17.4297366 C14.848284,17.4280156 14.856568,17.417116 14.8698225,17.415395 C14.9736489,17.3958905 15.0598028,17.3821226 15.1481657,17.357455 C15.1514793,17.355734 15.1514793,17.3454081 15.1619724,17.3431134 C15.2138856,17.3293455 15.2663511,17.3224615 15.3005917,17.3132829 C15.3326233,17.306399 15.4127022,17.2748475 15.4259566,17.2714055 C15.4441815,17.2656688 15.4563314,17.2587849 15.467929,17.2553429 C15.4850493,17.2519009 15.4971992,17.2444433 15.5087968,17.2410013 C15.527574,17.2375593 15.5391716,17.2306754 15.5513215,17.2272334 C15.5700986,17.2220704 15.5800394,17.2163338 15.5938462,17.2128918 C15.6015779,17.2111708 15.6137278,17.2163338 15.6209073,17.2128918 C15.6269822,17.2094498 15.6413412,17.1865033 15.649073,17.1830613 C15.6849704,17.1710143 15.6904931,17.1761773 15.7186588,17.1687197 C15.7512426,17.1601147 15.7832742,17.1394628 15.8153057,17.1268422 C15.85286,17.1107797 15.9174753,17.0740652 15.9412229,17.0689022 C15.9489546,17.0671812 15.9611045,17.0723442 15.9677318,17.0689022 C15.974359,17.0654602 15.9881657,17.0442347 15.9964497,17.038498 C16.0102564,17.0316141 16.0273767,17.0298931 16.0373176,17.0247301 C16.081499,17.0052256 16.1339645,16.9983416 16.1626824,16.982279 C16.1715187,16.977116 16.1814596,16.9576115 16.1914004,16.9530222 C16.2190138,16.9386806 16.2504931,16.9369596 16.2742406,16.924339 C16.2814201,16.919176 16.2930178,16.8996714 16.301854,16.8945085 C16.3371992,16.8750039 16.3592899,16.8807405 16.3863511,16.866399 C16.3929783,16.861236 16.4051282,16.8417314 16.4134122,16.8365684 C16.4338462,16.8256688 16.4714004,16.8222269 16.4968047,16.8084589 C16.5045365,16.803296 16.5133728,16.7855124 16.5249704,16.7803494 C16.5558974,16.7608449 16.5724655,16.7487979 16.5945562,16.7361773 C16.6254832,16.7183937 16.6420513,16.7046258 16.664142,16.6920052 C16.6945168,16.6747953 16.7132939,16.6638957 16.7337278,16.6501278 C16.7591321,16.6289022 16.7806706,16.6197236 16.8027613,16.6059557 C16.8115976,16.6007927 16.8215385,16.5830091 16.8303748,16.5778462 C16.8436292,16.5692412 16.8624063,16.5692412 16.8723471,16.5617836 C16.8811834,16.5566206 16.8911243,16.5411317 16.8994083,16.5342477 C16.9115582,16.5250691 16.9319921,16.5285111 16.9419329,16.5199061 C16.9877712,16.477455 16.9507692,16.2474159 16.9557396,16.1292412 C16.9573964,16.1148996 16.9673373,16.1131786 16.9689941,16.1011317 C16.9723077,16.0867901 16.9689941,16.0707275 16.9689941,16.0569596 M19.9589744,12.6907014 C19.9860355,12.6786545 20.0506509,12.6924224 20.0434714,12.6327614 C19.9081657,12.5851473 19.7391716,12.5220443 19.6254043,12.4744302 C19.6044181,12.4658253 19.5911637,12.4658253 19.5712821,12.4600887 C19.5458777,12.4532047 19.5199211,12.4388631 19.5016963,12.4319791 C19.4613807,12.4164902 19.4116765,12.3935437 19.3901381,12.387807 C19.3697041,12.3826441 19.3608679,12.3826441 19.3476134,12.3740391 C19.3288363,12.3619922 19.3205523,12.3671551 19.2912821,12.3602712 C19.2818935,12.3562555 19.282998,12.3459296 19.2780276,12.3442086 C19.2476529,12.331588 19.2321893,12.3373246 19.2089941,12.329867 C19.198501,12.328146 19.198501,12.3178201 19.1946351,12.3160991 C19.1510059,12.3000365 19.1068245,12.2822529 19.0830769,12.271927 C19.062643,12.263322 19.0493886,12.263322 19.0272978,12.2575854 C19.0035503,12.2507014 18.978146,12.2369335 18.9582643,12.2300495 C18.918501,12.213987 18.8693491,12.1910404 18.8472584,12.1858774 C18.8273767,12.1807145 18.8190927,12.1766988 18.805286,12.1721095 C18.7848521,12.1629309 18.7715976,12.1629309 18.7495069,12.1577679 C18.7390138,12.1543259 18.7390138,12.1434263 18.7357002,12.1417053 C18.6716371,12.1187588 18.6186193,12.0981069 18.5694675,12.0854863 C18.5363314,12.0768814 18.5142406,12.0625398 18.4849704,12.0556558 C18.4766864,12.0539348 18.4733728,12.0413142 18.471716,12.0413142 C18.3971598,12.0183677 18.3154241,12.0097627 18.2767653,11.9696063 C18.2684813,11.9604276 18.2325838,11.9730482 18.2209862,11.9696063 C18.214359,11.9661643 18.2055227,11.9449387 18.193925,11.9392021 C18.1757002,11.9323181 18.1519527,11.9305971 18.1375937,11.9254342 C18.0989349,11.9110926 18.0481262,11.888146 18.0260355,11.8829831 C18.0078107,11.8778201 17.9989744,11.8743781 17.9857199,11.8674941 C17.9636292,11.8583155 17.9514793,11.8583155 17.9293886,11.8531525 C17.9039842,11.8462686 17.8835503,11.833648 17.8598028,11.825043 C17.6145957,11.7315359 17.3721499,11.6420443 17.1230769,11.5508318 C17.0043393,11.5066597 16.8828402,11.4642086 16.760789,11.4200365 C16.7552663,11.4188892 16.7591321,11.4097106 16.7475345,11.4062686 C16.7282051,11.4011056 16.7199211,11.39709 16.7044576,11.390206 C16.6840237,11.381601 16.6707692,11.381601 16.6508876,11.3764381 C16.6254832,11.3712751 16.5995266,11.3552125 16.5813018,11.3483286 C16.5454043,11.333987 16.4879684,11.3093194 16.4697436,11.3041565 C16.4493097,11.2989935 16.4404734,11.2989935 16.4272189,11.2898149 C16.4183826,11.2846519 16.4078895,11.2777679 16.4001578,11.2760469 C16.2742406,11.2301538 16.1461144,11.1917184 16.0235108,11.1458253 C16.0185404,11.1441043 16.0235108,11.1349257 16.0102564,11.1320574 C15.9903748,11.1263207 15.9815385,11.1228787 15.9677318,11.1177158 C15.9472978,11.1073898 15.9340434,11.1073898 15.9119527,11.1016532 C15.9014596,11.0999322 15.9014596,11.0896063 15.8986982,11.0878853 C15.8445759,11.0683807 15.7661538,11.0385502 15.7324655,11.0299452 C15.7125838,11.0247823 15.7037475,11.0247823 15.6904931,11.0156037 C15.6816568,11.0104407 15.6711637,11.0052777 15.6628797,11.0012621 C15.5529783,10.9611056 15.4292702,10.9186545 15.3005917,10.8710404 C15.2646943,10.8589935 15.2072584,10.832605 15.1901381,10.827442 C15.1697041,10.822279 15.1619724,10.822279 15.1481657,10.8131004 C15.1128205,10.7901538 15.0598028,10.7832699 15.0228008,10.769502 C14.9786193,10.7534394 14.9515582,10.7379505 14.9106903,10.7270508 C14.9024063,10.7253299 14.8990927,10.7132829 14.8974359,10.7132829 C14.8344773,10.6937784 14.7969231,10.6903364 14.7450099,10.6691108 C14.7400394,10.6668162 14.7433531,10.6582112 14.7312032,10.6547692 C14.7107692,10.6496063 14.7024852,10.6461643 14.6886785,10.6410013 C14.6853649,10.6392803 14.6792899,10.6410013 14.6754241,10.6410013 C14.6599606,10.6392803 14.66714,10.6283807 14.6616174,10.6249387 C14.6334517,10.6146128 14.5920316,10.6071551 14.5638659,10.5968292 C14.5025641,10.5738827 14.4379487,10.5457731 14.3821696,10.5245476 C14.3346746,10.5056167 14.2904931,10.4947171 14.2722682,10.4809492 C14.2352663,10.4562816 14.1601578,10.4700495 14.1330966,10.4809492 C14.0994083,10.4947171 14.0502564,10.5211056 14.0347929,10.5245476 C14.0160158,10.5297106 14.008284,10.5337262 13.9944773,10.5388892 C13.9723866,10.5474941 13.9591321,10.5474941 13.9386982,10.5526571 C13.9132939,10.5595411 13.8895464,10.5756037 13.8691124,10.5830613 C13.833215,10.5951082 13.7757791,10.6214967 13.7575542,10.6249387 C13.7487179,10.6283807 13.736568,10.6214967 13.7304931,10.6249387 C13.7233136,10.6283807 13.7100592,10.6513272 13.7012229,10.6547692 C13.6945957,10.6582112 13.682998,10.6530482 13.6741617,10.6547692 C13.6642209,10.6564902 13.6625641,10.6691108 13.6609073,10.6691108 C13.5996055,10.6886154 13.5570809,10.6937784 13.5062722,10.7132829 C13.501854,10.7144302 13.5062722,10.7236089 13.4930178,10.7270508 C13.4742406,10.7322138 13.4659566,10.7356558 13.4504931,10.7408188 C13.4471795,10.7431134 13.44,10.7408188 13.4366864,10.7408188 C13.423432,10.7408188 13.4284024,10.7534394 13.423432,10.7551604 C13.38643,10.769502 13.3831164,10.762618 13.3538462,10.769502 C13.3439053,10.7729439 13.3439053,10.7832699 13.3405917,10.7849909 C13.3080079,10.7958905 13.2748718,10.8010535 13.242288,10.8131004 C13.1831953,10.8360469 13.1218935,10.8624355 13.0628008,10.885382 C13.0318738,10.895708 12.993215,10.9031656 12.964497,10.9152125 C12.9589744,10.9169335 12.964497,10.9261121 12.9512426,10.9295541 C12.9302564,10.9347171 12.9219724,10.9381591 12.9081657,10.943322 C12.8877318,10.9525007 12.8744773,10.9525007 12.8529389,10.9576636 C12.8291913,10.9645476 12.8032347,10.9783155 12.7833531,10.9874941 C12.7491124,11.0001147 12.6900197,11.0259296 12.6734517,11.0299452 C12.6541223,11.0351082 12.6425247,11.0419922 12.630927,11.0437132 C12.6220907,11.0471551 12.6099408,11.0419922 12.6038659,11.0437132 C12.5966864,11.0471551 12.583432,11.0701017 12.5745957,11.0735437 C12.5563708,11.0827223 12.5326233,11.0827223 12.5188166,11.0878853 C12.4884418,11.0999322 12.4508876,11.1056688 12.4227219,11.1177158 C12.3973176,11.1263207 12.379645,11.1406623 12.3663905,11.1458253 C12.3459566,11.1550039 12.3321499,11.1550039 12.3100592,11.1595932 C12.2785799,11.1687718 12.2564892,11.1808188 12.2277712,11.1899974 C12.2018146,11.1951604 12.1819329,11.2089283 12.1581854,11.2181069 C11.9770414,11.2869465 11.7920316,11.3552125 11.6164103,11.4200365 C11.5805128,11.4326571 11.5230769,11.4590456 11.5037475,11.4642086 C11.4838659,11.4676506 11.4772387,11.4693716 11.463432,11.4785502 C11.4551479,11.4837132 11.442998,11.4888761 11.434714,11.4923181 C11.3640237,11.5187066 11.282288,11.5508318 11.2265089,11.5645997 C11.1922682,11.5737784 11.1723866,11.5858253 11.1431164,11.5927093 C11.1331755,11.5961512 11.1315187,11.6070508 11.1282051,11.6087718 C11.0718738,11.6299974 11.0243787,11.6317184 10.9752268,11.6506493 C10.9708087,11.6523703 10.9752268,11.6632699 10.9619724,11.6649909 C10.9415385,11.6701538 10.9332544,11.6718748 10.92,11.6810535 C10.9128205,11.6862164 10.9012229,11.6913794 10.8923866,11.6948214 C10.7742012,11.7389935 10.6521499,11.7791499 10.5317554,11.825043 C10.4113609,11.8692151 10.2893097,11.9099452 10.1689152,11.9552647 C10.164497,11.9569857 10.1678107,11.9661643 10.1556607,11.9696063 C10.1352268,11.9747692 10.1269428,11.9782112 10.1136884,11.9833742 C10.1098225,11.9850952 10.1031953,11.9833742 10.0998817,11.9833742 C10.086075,11.9833742 10.0915976,11.9954211 10.086075,11.9977158 C10.057357,12.0080417 10.0170414,12.0172203 9.9877712,12.0275463 C9.95242604,12.0395932 9.89443787,12.0659817 9.87786982,12.0694237 C9.8574359,12.0751604 9.84915187,12.0751604 9.83534517,12.0854863 C9.80497041,12.1049909 9.76465483,12.1067119 9.73869822,12.1135958 C9.72930966,12.1153168 9.72710059,12.1273638 9.72378698,12.1273638 C9.62051282,12.1646519 9.53380671,12.1944824 9.44599606,12.2300495 C9.42059172,12.2386545 9.38966469,12.2472595 9.36315582,12.2575854 C9.34051282,12.266764 9.31566075,12.2845476 9.30682446,12.2862686 C9.2869428,12.2931525 9.26485207,12.2983155 9.25104536,12.3017575 C9.23226824,12.3069205 9.22453649,12.3069205 9.21017751,12.3160991 C9.17483235,12.3390456 9.12402367,12.3442086 9.08536489,12.3602712 C9.0781854,12.3619922 9.08370809,12.3705971 9.07155819,12.3740391 C9.05278107,12.3774811 9.04118343,12.3849387 9.02903353,12.387807 C9.01080868,12.3935437 9.00031558,12.3987066 8.98706114,12.4021486 C8.96662722,12.4073116 8.96,12.4073116 8.94619329,12.4164902 C8.93790927,12.4216532 8.92631164,12.4285372 8.91747535,12.4319791 C8.84623274,12.4566467 8.76615385,12.4881982 8.70927022,12.5042608 C8.68386588,12.5094237 8.66011834,12.5254863 8.63968442,12.5323703 C8.59936884,12.5467119 8.54966469,12.5690847 8.52812623,12.5765424 C8.50934911,12.5799844 8.50051282,12.5851473 8.48725838,12.590884 C8.44970414,12.6063729 8.40386588,12.6241565 8.36189349,12.6327614 C8.3635503,12.6838175 8.43313609,12.7010274 8.44473373,12.706764 C8.47676529,12.718811 8.50216963,12.7222529 8.52812623,12.7348735 C8.63637081,12.7824876 8.7512426,12.8369857 8.84788955,12.8788631 C8.87329389,12.8897627 8.8887574,12.9000887 8.91747535,12.9069726 C8.94619329,12.9161512 8.99037475,12.9442608 9.00031558,12.9511447 C9.02903353,12.9706493 9.05996055,12.9689283 9.08536489,12.9792542 C9.09199211,12.9832699 9.10414201,13.0056428 9.11187377,13.0090847 C9.13285996,13.0182634 9.15495069,13.0182634 9.16820513,13.0234263 C9.217357,13.0446519 9.28859961,13.0813664 9.32063116,13.095708 C9.35100592,13.1077549 9.40015779,13.1324224 9.41893491,13.1398801 C9.42224852,13.1410274 9.42942801,13.1398801 9.43274162,13.1398801 C9.44765286,13.1398801 9.43881657,13.150206 9.44599606,13.153648 C9.48631164,13.1714316 9.53767258,13.1834785 9.55755424,13.1978201 C9.58848126,13.216751 9.63928994,13.2310926 9.65420118,13.2396975 C9.68512821,13.2609231 9.73704142,13.27297 9.7530572,13.2838696 C9.76078895,13.2890326 9.77128205,13.2941956 9.77956607,13.2976375 C9.7983432,13.3068162 9.81380671,13.3033742 9.83534517,13.3119791 C9.84252465,13.3154211 9.85577909,13.3366467 9.86295858,13.3418096 C9.88284024,13.3527093 9.89996055,13.3469726 9.9181854,13.3561512 C10.0590138,13.4192542 10.2081262,13.4863729 10.3368047,13.5443129 C10.3693886,13.5586545 10.4030769,13.5741434 10.4334517,13.5861904 C10.4660355,13.6005319 10.5013807,13.6165945 10.5317554,13.6303625 C10.555503,13.6412621 10.5709665,13.651588 10.6013412,13.658472 C10.6333728,13.6670769 10.6676134,13.6957601 10.6841815,13.7026441 C10.7167653,13.716412 10.7642604,13.7410795 10.7808284,13.7468162 C10.8012623,13.7519791 10.8100986,13.7519791 10.8233531,13.7605841 C10.8620118,13.7852516 10.9095069,13.8013142 10.9487179,13.8185241 C10.9708087,13.8277027 11.0061538,13.8466336 11.0183037,13.8466336 C11.033215,13.8483546 11.0243787,13.8592542 11.0315582,13.8609752 C11.0586193,13.8730222 11.1044576,13.8890847 11.1143984,13.8908057 C11.1298619,13.8908057 11.1232347,13.9017053 11.1282051,13.9051473 C11.1552663,13.9171943 11.2011045,13.9332568 11.2127022,13.9332568 C11.2265089,13.9349778 11.2215385,13.9453038 11.2265089,13.9487458 C11.3027219,13.9785763 11.3419329,13.9860339 11.3789349,13.9630874 C11.3921893,13.9556297 11.3971598,13.9384198 11.4076529,13.9332568 C11.4314004,13.9206362 11.4617751,13.9206362 11.4904931,13.9051473 C11.4976726,13.9017053 11.5092702,13.8804798 11.5175542,13.8747432 C11.5330178,13.8678592 11.5484813,13.8678592 11.5600789,13.8609752 C11.6180671,13.8311447 11.6683235,13.8013142 11.7125049,13.774352 C11.7279684,13.7657471 11.7395661,13.7697627 11.7550296,13.7605841 C11.7616568,13.7554211 11.7738067,13.7359166 11.7815385,13.7307536 C11.8124655,13.714691 11.8395266,13.718133 11.8665878,13.7026441 C11.873215,13.6974811 11.8837081,13.6796975 11.8942012,13.6745346 C11.8986193,13.6710926 11.9179487,13.658472 11.9207101,13.658472 C11.9378304,13.658472 11.9278895,13.648146 11.9361736,13.644704 C11.9599211,13.6303625 11.9952663,13.6269205 12.0190138,13.6165945 C12.0261933,13.6125789 12.0377909,13.591927 12.046075,13.5861904 C12.0615385,13.5793064 12.077002,13.5793064 12.0885996,13.5724224 C12.1106903,13.5598018 12.1360947,13.5425919 12.1581854,13.5282503 C12.1885602,13.5121877 12.2123077,13.5018618 12.2410256,13.4863729 C12.2564892,13.4771943 12.2680868,13.4806362 12.2835503,13.4720313 C12.2901775,13.4668683 12.3023274,13.4473638 12.3100592,13.4422008 C12.326075,13.4335958 12.3409862,13.4353168 12.3531361,13.4278592 C12.3614201,13.4226962 12.3713609,13.4049126 12.379645,13.3997497 C12.4067061,13.3842608 12.4392899,13.3825398 12.4646943,13.3699192 C12.4713215,13.3664772 12.4834714,13.3452516 12.4917554,13.3418096 C12.5121893,13.3314837 12.5293097,13.3366467 12.5475345,13.3280417 C12.554714,13.3223051 12.5663116,13.3033742 12.5745957,13.2976375 C12.5900592,13.2890326 12.6055227,13.2907536 12.6171203,13.2838696 C12.6259566,13.2787066 12.6353452,13.2592021 12.6441815,13.2557601 C12.6795266,13.2345346 12.7016174,13.2414185 12.7286785,13.2253559 C12.735858,13.2224876 12.7474556,13.2006884 12.7557396,13.1978201 C12.7695464,13.1886415 12.7866667,13.1886415 12.7982643,13.1817575 C12.8054438,13.1783155 12.8186982,13.1674159 12.8253254,13.1674159 C12.840789,13.1674159 12.8325049,13.15709 12.8385799,13.153648 C12.8545957,13.146764 12.8661933,13.148485 12.8816568,13.1398801 C12.8899408,13.1341434 12.8998817,13.1152125 12.9081657,13.1094759 C12.93357,13.0974289 12.9678107,13.095708 12.993215,13.0813664 C12.9998422,13.0779244 13.0119921,13.0566988 13.0202761,13.0532568 C13.0357396,13.0446519 13.0506509,13.0446519 13.0628008,13.0371943 C13.0760552,13.0303103 13.0793688,13.0165424 13.0898619,13.0090847 C13.1069822,12.9970378 13.1268639,13.0039218 13.145641,12.9953168 C13.1522682,12.9901538 13.1638659,12.9706493 13.1727022,12.9654863 C13.2080473,12.9459817 13.2301381,12.9511447 13.2571992,12.9373768 C13.2643787,12.9316402 13.2759763,12.9127093 13.2842604,12.9069726 C13.2997239,12.9000887 13.3135306,12.9000887 13.326785,12.8932047 C13.355503,12.8754211 13.3726233,12.8616532 13.3963708,12.8507536 C13.402998,12.8473116 13.4162525,12.8369857 13.423432,12.8352647 C13.4383432,12.8352647 13.4306114,12.8243651 13.4366864,12.8209231 C13.4604339,12.8088761 13.4930178,12.8065815 13.5200789,12.7928136 C13.5289152,12.7893716 13.5405128,12.768146 13.5487968,12.7629831 C13.567574,12.7526571 13.5863511,12.7595411 13.6045759,12.7486415 C13.6134122,12.7451995 13.6216963,12.7279896 13.6316371,12.7211056 C13.6454438,12.711927 13.6570414,12.715369 13.6741617,12.706764 C13.680789,12.7010274 13.6923866,12.6820965 13.7012229,12.6763598 C13.72,12.6677549 13.7437475,12.6746389 13.7575542,12.6625919 C13.7978698,12.6258774 13.8078107,12.5713794 13.8403945,12.5323703 C13.8773964,12.4881982 13.9132939,12.4566467 13.9657594,12.4319791 C13.9944773,12.4182112 14.0231953,12.4073116 14.0347929,12.4021486 C14.0381065,12.4004276 14.045286,12.4021486 14.0485996,12.4021486 C14.061854,12.4021486 14.0601972,12.387807 14.0635108,12.387807 C14.0839448,12.3826441 14.1110059,12.389528 14.1330966,12.387807 C14.158501,12.3849387 14.1805917,12.3740391 14.2026824,12.3740391 C14.2639842,12.3740391 14.3214201,12.3969857 14.3689152,12.4021486 C14.4042604,12.4073116 14.4164103,12.4302581 14.4379487,12.4319791 C14.4639053,12.4319791 14.4732939,12.4583677 14.4942801,12.4600887 C14.5114004,12.4600887 14.5009073,12.4692673 14.5075345,12.4744302 C14.5638659,12.5168814 14.6058383,12.5501538 14.6058383,12.6327614 C14.6058383,12.708485 14.5666272,12.7365945 14.5368047,12.7629831 C14.5296252,12.768146 14.5279684,12.7859296 14.522998,12.7928136 C14.5180276,12.7962555 14.4992505,12.7893716 14.4942801,12.7928136 C14.483787,12.7996975 14.4804734,12.8140391 14.4672189,12.8209231 C14.4401578,12.8369857 14.407574,12.8421486 14.3976331,12.8507536 C14.3197633,12.9018096 14.129783,12.8805841 14.0347929,12.8650952 C14.0066272,12.9018096 13.9552663,12.9052516 13.9248915,12.9230352 C13.9166075,12.9264772 13.9061144,12.9459817 13.8961736,12.9511447 C13.8757396,12.9631917 13.8348718,12.9672073 13.8127811,12.9792542 C13.8050493,12.9849909 13.796213,13.0022008 13.7857199,13.0090847 C13.7708087,13.0182634 13.7586588,13.0148214 13.7437475,13.0234263 C13.7354635,13.0285893 13.7249704,13.0480939 13.7144773,13.0532568 C13.680789,13.0727614 13.6592505,13.0658774 13.6316371,13.0813664 C13.6250099,13.0848083 13.6134122,13.1060339 13.6045759,13.1094759 C13.5896647,13.1180808 13.5747535,13.1169335 13.5626036,13.1255385 C13.5510059,13.1324224 13.5438264,13.148485 13.5349901,13.153648 C13.5112426,13.1674159 13.4758974,13.1691369 13.4504931,13.1817575 C13.4438659,13.1869205 13.4322682,13.206425 13.423432,13.211588 C13.3880868,13.2310926 13.3676529,13.2253559 13.3405917,13.2396975 C13.3317554,13.2454342 13.3218146,13.2643651 13.3118738,13.269528 C13.2964103,13.2787066 13.2826036,13.274691 13.2710059,13.2838696 C13.2627219,13.2890326 13.2527811,13.3068162 13.242288,13.3119791 C13.2185404,13.3263207 13.1831953,13.3280417 13.1594477,13.3418096 C13.1506114,13.3452516 13.1401183,13.3647562 13.1323866,13.3699192 C13.1169231,13.3790978 13.1014596,13.3790978 13.0898619,13.3842608 C13.0644576,13.3997497 13.0423669,13.4158123 13.0202761,13.4278592 C13.0064694,13.4353168 12.9948718,13.4335958 12.9777515,13.4422008 C12.9711243,13.4473638 12.9589744,13.4668683 12.9512426,13.4720313 C12.9258383,13.4846519 12.8915976,13.4863729 12.8678501,13.5001408 C12.8595661,13.5035828 12.8474162,13.5248083 12.8385799,13.5282503 C12.8236686,13.5368553 12.8104142,13.5368553 12.7982643,13.5443129 C12.7712032,13.5586545 12.752426,13.5741434 12.7286785,13.5861904 C12.7137673,13.595369 12.7016174,13.591927 12.6867061,13.6022529 C12.6778698,13.6056949 12.667929,13.6251995 12.6590927,13.6303625 C12.6336884,13.6429831 12.6005523,13.646425 12.5745957,13.658472 C12.5679684,13.6642086 12.5563708,13.6831395 12.5475345,13.6888761 C12.5326233,13.6974811 12.5171598,13.6957601 12.5055621,13.7026441 C12.4967258,13.707807 12.486785,13.7255906 12.4779487,13.7307536 C12.4426036,13.7519791 12.4210651,13.7450952 12.3951085,13.7605841 C12.3868245,13.7640261 12.3768836,13.7852516 12.3663905,13.7886936 C12.3409862,13.8013142 12.3072978,13.8047562 12.2835503,13.8185241 C12.274714,13.8219661 12.2647732,13.8414707 12.2548323,13.8466336 C12.2410256,13.8558123 12.2255621,13.8540913 12.2139645,13.8609752 C12.2056805,13.8661382 12.1951874,13.8856428 12.1852465,13.8908057 C12.1510059,13.9103103 12.1289152,13.9051473 12.101854,13.9189153 C12.0957791,13.9240782 12.0836292,13.9435828 12.0753452,13.9487458 C12.0515976,13.9613664 12.0157002,13.9630874 11.9902959,13.9774289 C11.9836686,13.9802973 11.9715187,14.0015228 11.963787,14.0049648 C11.9477712,14.0141434 11.9345168,14.0124224 11.9207101,14.0210274 C11.9140828,14.0244694 11.9019329,14.0439739 11.8942012,14.0491369 C11.8583037,14.0686415 11.8378698,14.0634785 11.8108087,14.0772464 C11.8025247,14.0829831 11.7920316,14.101914 11.7815385,14.1076506 C11.7577909,14.1214185 11.7042209,14.1162555 11.7125049,14.1655906 C11.9295464,14.2516402 12.1289152,14.3451473 12.3393294,14.4398018 C12.3647337,14.4507014 12.3951085,14.4558644 12.4227219,14.4679113 C12.4287968,14.4713533 12.4409467,14.4925789 12.4492308,14.4977419 C12.4580671,14.5000365 12.470217,14.4942999 12.4779487,14.4977419 C12.4900986,14.5000365 12.486785,14.5086415 12.4917554,14.5120834 C12.5359369,14.531588 12.5884024,14.538472 12.6171203,14.5539609 C12.6237475,14.5596975 12.6353452,14.5786284 12.6441815,14.5843651 C12.6530178,14.587807 12.6646154,14.5826441 12.6734517,14.5843651 C12.7104536,14.59297 12.7612623,14.6348475 12.7833531,14.6423051 C12.7916371,14.6440261 12.8032347,14.6388631 12.812071,14.6423051 C12.8186982,14.6440261 12.8325049,14.6669726 12.8385799,14.6704146 C12.8529389,14.6772986 12.8711637,14.6813142 12.8816568,14.6841825 C12.9070611,14.6968031 12.9390927,14.7019661 12.964497,14.7145867 C12.9711243,14.7163077 12.964497,14.7249126 12.9777515,14.7283546 C12.9865878,14.7300756 12.9987377,14.7249126 13.0064694,14.7283546 C13.0136489,14.7317966 13.0252465,14.7530222 13.0340828,14.7564641 C13.0578304,14.7667901 13.0931755,14.7742477 13.1169231,14.7868683 C13.1710454,14.8092412 13.2185404,14.8339087 13.2710059,14.8585763 C13.2964103,14.8694759 13.3284418,14.8746389 13.3538462,14.8866858 C13.3610256,14.8901278 13.3726233,14.9113533 13.3814596,14.9165163 C13.3897436,14.9205319 13.4013412,14.9130743 13.4101775,14.9165163 C13.4217751,14.918811 13.4184615,14.9274159 13.423432,14.9308579 C13.4504931,14.9434785 13.4797633,14.9463468 13.5062722,14.9589674 C13.5134517,14.9624094 13.5062722,14.9692934 13.5200789,14.9727353 C13.5289152,14.976751 13.5405128,14.9692934 13.5487968,14.9727353 C13.5554241,14.976751 13.567574,14.9996975 13.575858,15.0031395 C13.584142,15.0065815 13.5962919,15.0014185 13.6045759,15.0031395 C13.615069,15.0048605 13.615069,15.0151864 13.6183826,15.0169074 C13.6669822,15.038133 13.7012229,15.041575 13.7437475,15.0610795 C13.7503748,15.0628005 13.7636292,15.0857471 13.7708087,15.089189 C13.7995266,15.1052516 13.8199606,15.097794 13.8403945,15.102957 C13.8790533,15.1138566 13.9298619,15.1563077 13.9519527,15.1614707 C13.960789,15.1631917 13.9723866,15.1580287 13.9790138,15.1614707 C13.9861933,15.1649126 13.9994477,15.1861382 14.008284,15.1913012 C14.014359,15.1947432 14.0265089,15.1878592 14.0347929,15.1913012 C14.0469428,15.1930222 14.045286,15.2033481 14.0485996,15.2056428 C14.1148718,15.2331786 14.1822485,15.2635828 14.2164892,15.2635828 C14.2385799,15.2618618 14.2639842,15.2371943 14.2722682,15.2331786 C14.3009862,15.2211317 14.3197633,15.2142477 14.3413018,15.2056428 C14.3584221,15.1981851 14.3755424,15.1999061 14.3976331,15.1913012 C14.4042604,15.1878592 14.4164103,15.1666336 14.4246943,15.1614707 C14.4451282,15.1505711 14.4600394,15.1563077 14.4804734,15.1471291 C14.5820907,15.1000887 14.6687968,15.0576375 14.7582643,15.0169074 C14.8074162,14.9939609 14.856568,14.978472 14.8974359,14.9589674 C14.9057199,14.9555254 14.9195266,14.9451995 14.9261538,14.9451995 C14.9394083,14.9451995 14.9327811,14.9325789 14.9394083,14.9308579 C14.9719921,14.9165163 15.0056805,14.9147953 15.0360552,14.9010274 C15.0432347,14.8993064 15.037712,14.8901278 15.0515187,14.8866858 C15.0702959,14.8815228 15.0785799,14.8815228 15.0923866,14.8729179 C15.1172387,14.8568553 15.1768836,14.8304668 15.1901381,14.8287458 C15.2138856,14.8287458 15.2630375,14.7903103 15.2735306,14.7868683 C15.2768442,14.7845737 15.2834714,14.7868683 15.286785,14.7868683 C15.3016963,14.7845737 15.2956213,14.7742477 15.3005917,14.7708057 C15.3414596,14.7530222 15.3922682,14.7409752 15.4127022,14.7283546 C15.4204339,14.7231917 15.430927,14.7180287 15.439211,14.7145867 C15.4579882,14.7059817 15.4734517,14.7088501 15.4949901,14.6985241 C15.5021696,14.6968031 15.5154241,14.6738566 15.5242604,14.6704146 C15.5424852,14.659515 15.5596055,14.6652516 15.5800394,14.6566467 C15.6529389,14.6210795 15.7424063,14.5843651 15.8020513,14.5539609 C15.8257988,14.5436349 15.8423669,14.533309 15.8716371,14.526425 C15.9053254,14.5172464 15.937357,14.4891369 15.9544773,14.4822529 C15.9881657,14.4679113 16.0340039,14.4432438 16.0527811,14.4398018 C16.0710059,14.4346389 16.0798422,14.4346389 16.0930966,14.4237392 C16.1019329,14.4191499 16.1135306,14.4134133 16.1223669,14.4099713 C16.1731755,14.3870248 16.2411045,14.3520313 16.2742406,14.3376897 C16.3051677,14.3256428 16.3543195,14.3026962 16.3708876,14.2958123 C16.3747535,14.2940913 16.3813807,14.2958123 16.3863511,14.2958123 C16.4001578,14.2940913 16.3929783,14.2831917 16.4001578,14.2797497 C16.4592505,14.2533611 16.5233136,14.2338566 16.5813018,14.2074681 C16.6895464,14.159854 16.8027613,14.1076506 16.8994083,14.0634785 C16.9248126,14.0525789 16.9402761,14.0422529 16.9689941,14.035369 C17.0032347,14.0261904 17.0369231,13.9980808 17.0534911,13.9911969 C17.086075,13.9774289 17.13357,13.9527614 17.1501381,13.9487458 C17.170572,13.9435828 17.1794083,13.9418618 17.1926627,13.9332568 C17.2164103,13.9171943 17.2760552,13.8908057 17.2893097,13.8908057 C17.3042209,13.8890847 17.2975937,13.8787588 17.3025641,13.8747432 C17.343432,13.8575332 17.3947929,13.8454863 17.4146746,13.8328657 C17.4229586,13.8277027 17.4351085,13.8219661 17.4433925,13.8185241 C17.4605128,13.8099192 17.4754241,13.8133611 17.4975148,13.8030352 C17.5046943,13.8013142 17.5179487,13.7783677 17.526785,13.774352 C17.5450099,13.7640261 17.5615779,13.7697627 17.5820118,13.7605841 C17.7973964,13.660193 18.0127811,13.5655385 18.2209862,13.4720313 C18.2447337,13.4617053 18.2784221,13.4439218 18.290572,13.4422008 C18.3054832,13.4422008 18.298856,13.4313012 18.3054832,13.4278592 C18.3330966,13.4158123 18.3767258,13.3997497 18.3883235,13.3997497 C18.4043393,13.3980287 18.395503,13.3877027 18.4021302,13.3842608 C18.4396844,13.3681982 18.4954635,13.3527093 18.5142406,13.3418096 C18.5413018,13.3223051 18.5711243,13.3240261 18.5970809,13.3119791 C18.6037081,13.3102581 18.6153057,13.2873116 18.624142,13.2838696 C18.6445759,13.274691 18.6661144,13.274691 18.6804734,13.269528 C18.7102959,13.2557601 18.720789,13.2414185 18.7495069,13.2396975 C18.7649704,13.2396975 18.7577909,13.2293716 18.7627613,13.2253559 C18.8036292,13.208146 18.8544379,13.1960991 18.8748718,13.1817575 C18.8831558,13.1765945 18.8930966,13.1714316 18.9035897,13.1674159 C18.9207101,13.1605319 18.9361736,13.1645476 18.9582643,13.153648 C18.9643393,13.150206 18.978146,13.1289804 18.98643,13.1255385 C19.0057594,13.1152125 19.0223274,13.1203755 19.0427613,13.1094759 C19.0902564,13.0882503 19.161499,13.0515359 19.1946351,13.0371943 C19.2255621,13.0251473 19.274714,13.0022008 19.2912821,12.9953168 C19.2951479,12.9935958 19.3017751,12.9953168 19.3067456,12.9953168 C19.3205523,12.9935958 19.3133728,12.9832699 19.3205523,12.9792542 C19.359211,12.9614707 19.4116765,12.9494237 19.4321105,12.9373768 C19.4409467,12.9316402 19.4508876,12.9264772 19.4591716,12.9230352 C19.4762919,12.9144302 19.4912032,12.9178722 19.5149507,12.9069726 C19.5221302,12.9052516 19.5342801,12.8823051 19.5420118,12.8788631 C19.5624458,12.8685372 19.5779093,12.8737001 19.5983432,12.8650952 C19.704931,12.8157601 19.8236686,12.764704 19.9186588,12.7211056 C19.925286,12.71709 19.9385404,12.706764 19.9457199,12.706764 C19.9606312,12.705043 19.9517949,12.6941434 19.9589744,12.6907014 M20.7801972,12.6184198 C20.7636292,12.6677549 20.7045365,12.6608709 20.6686391,12.6763598 C20.6620118,12.6803755 20.6702959,12.6907014 20.6553846,12.6907014 C20.6349507,12.6924224 20.6244576,12.718811 20.5990533,12.7211056 C20.5913215,12.7211056 20.5482446,12.7279896 20.5438264,12.7348735 C20.5416174,12.7365945 20.5454832,12.7486415 20.5438264,12.7486415 C20.5383037,12.7526571 20.5200789,12.7451995 20.516213,12.7486415 C20.5145562,12.7503625 20.5178698,12.7629831 20.516213,12.7629831 C20.4858383,12.7773246 20.4433136,12.7807666 20.4179093,12.7928136 C20.4112821,12.7962555 20.4195661,12.8065815 20.4046548,12.8065815 C20.3996844,12.8065815 20.3742801,12.8174811 20.363787,12.8209231 C20.3538462,12.826086 20.3538462,12.8335437 20.3483235,12.8352647 C20.3113215,12.8530482 20.2621696,12.8633742 20.2235108,12.8788631 C20.2185404,12.8823051 20.2251677,12.8932047 20.2097041,12.8932047 C20.1981065,12.8949257 20.1588955,12.9109883 20.1401183,12.9230352 C20.1180276,12.9373768 20.0451282,12.9603233 20.0009467,12.9792542 C19.9948718,12.9832699 20.0031558,12.9935958 19.9876923,12.9953168 C19.9589744,12.9970378 19.9440631,13.0056428 19.9186588,13.0234263 C19.9031953,13.0337523 19.8744773,13.0354733 19.8352663,13.0532568 C19.8286391,13.0549778 19.8352663,13.0658774 19.8198028,13.0675984 C19.7982643,13.0675984 19.7540828,13.0974289 19.7231558,13.1094759 C19.6977515,13.1203755 19.6695858,13.1255385 19.6403156,13.1398801 C19.6336884,13.1427484 19.6403156,13.153648 19.6254043,13.153648 C19.5933728,13.155369 19.540355,13.1938044 19.5016963,13.211588 C19.4812623,13.2207666 19.4453649,13.2276506 19.4171992,13.2396975 C19.4100197,13.2431395 19.418856,13.2540391 19.4033925,13.2557601 C19.3713609,13.2557601 19.3188955,13.2959166 19.2780276,13.3119791 C19.258146,13.3205841 19.243787,13.3171421 19.2222485,13.3280417 C19.2167258,13.3297627 19.2239053,13.3400887 19.2089941,13.3418096 C19.1968442,13.3418096 19.1576331,13.3578722 19.1394083,13.3699192 C19.1289152,13.3773768 19.0880473,13.3842608 19.0560158,13.3997497 C19.0493886,13.4020443 19.0576726,13.4123703 19.0427613,13.4140913 C19.0355819,13.4140913 19.0223274,13.4244172 19.0134911,13.4278592 C18.4209073,13.6934654 17.8228008,13.9539087 17.2335306,14.2235306 L17.2335306,16.3174029 C17.2335306,16.421236 17.2539645,16.5411317 17.2335306,16.6059557 C17.2246943,16.6375072 17.2147535,16.6484068 17.1794083,16.6782373 C17.1650493,16.6902842 17.1501381,16.6954472 17.1368836,16.7080678 C17.1263905,16.7149518 17.1186588,16.7310143 17.1098225,16.7361773 C17.1042998,16.7396193 17.0844181,16.7310143 17.0805523,16.7361773 C17.065641,16.7556819 17.0551479,16.7591239 17.0253254,16.7803494 C17.018146,16.7855124 17.0280868,16.7923963 17.0115187,16.7941173 C17.0076529,16.7941173 16.989428,16.8050169 16.9839053,16.8084589 C16.9745168,16.8153429 16.9640237,16.8314055 16.9557396,16.8365684 C16.9303353,16.854352 16.8977515,16.864678 16.8723471,16.8807405 C16.8640631,16.8859035 16.8740039,16.8945085 16.8590927,16.8945085 C16.8541223,16.8945085 16.8353452,16.9065554 16.8303748,16.9088501 C16.8198817,16.917455 16.8115976,16.9335176 16.8027613,16.9386806 C16.7861933,16.9490065 16.7641026,16.9421226 16.7475345,16.9530222 C16.7370414,16.9599061 16.7315187,16.9736741 16.7199211,16.982279 C16.6796055,17.0069465 16.6508876,17.0298931 16.6083629,17.0545606 C16.5945562,17.0614446 16.5724655,17.0809492 16.5520316,17.0832438 C16.5454043,17.0832438 16.5321499,17.0935698 16.5249704,17.0970117 C16.5100592,17.1038957 16.4912821,17.1251213 16.4697436,17.1268422 C16.4625641,17.1268422 16.4493097,17.1371682 16.4404734,17.1411838 C16.4272189,17.1480678 16.4062327,17.1687197 16.3863511,17.1687197 C16.3797239,17.1687197 16.3659172,17.1796193 16.3576331,17.1830613 C16.3438264,17.1905189 16.3233925,17.2111708 16.301854,17.2128918 C16.2963314,17.2128918 16.2814201,17.2237914 16.2742406,17.2272334 C16.2609862,17.2341173 16.2411045,17.2553429 16.2190138,17.2553429 C16.2118343,17.2570639 16.1980276,17.2673898 16.1914004,17.2714055 C16.1759369,17.2782894 16.157712,17.297794 16.1356213,17.299515 C16.1289941,17.299515 16.1151874,17.3098409 16.1063511,17.3132829 C16.089783,17.3224615 16.0765286,17.3362295 16.0527811,17.3431134 C16.0439448,17.3454081 16.0323471,17.3396714 16.0235108,17.3431134 C16.0152268,17.3471291 16.0036292,17.367781 15.9964497,17.3717966 C15.9390138,17.3976115 15.8760552,17.417116 15.8153057,17.4435046 C15.7882446,17.4555515 15.7578698,17.4773507 15.7324655,17.4876767 C15.6982249,17.5020183 15.6667456,17.5048866 15.6341617,17.5157862 C15.6291913,17.5175072 15.6358185,17.5295541 15.6209073,17.5295541 C15.6175937,17.5312751 15.6104142,17.5295541 15.6071006,17.5295541 C15.5938462,17.5370117 15.5850099,17.5404537 15.5645759,17.5456167 C15.5480079,17.5490587 15.4900197,17.5788892 15.4546746,17.5874941 C15.3922682,17.6052777 15.3414596,17.6001147 15.2735306,17.6178983 C15.2630375,17.6196193 15.2613807,17.6316662 15.2597239,17.6316662 C15.1868245,17.6460078 15.1106114,17.6460078 15.0360552,17.6597757 C15.0343984,17.6614967 15.0343984,17.6741173 15.0228008,17.6758383 C14.9703353,17.6775593 14.9007495,17.6919009 14.8278501,17.7039478 C14.5263116,17.7532829 14.0889152,17.799176 13.7304931,17.7481199 C13.711716,17.744678 13.6907298,17.7515619 13.6741617,17.7481199 C13.6625641,17.744678 13.6609073,17.7337784 13.6454438,17.7320574 C13.5659172,17.7217314 13.4814201,17.7165684 13.4101775,17.7039478 C13.4013412,17.7022269 13.3908481,17.7056688 13.3814596,17.7039478 C13.3659961,17.7005059 13.3538462,17.6953429 13.3118738,17.6901799 C13.3080079,17.6884589 13.2864694,17.6936219 13.2842604,17.6901799 C13.2643787,17.6637914 13.0915187,17.6460078 13.0340828,17.6316662 C13.0235897,17.6282243 13.0235897,17.6178983 13.0202761,17.6178983 C12.9540039,17.5983937 12.88,17.5863468 12.812071,17.5599583 C12.8071006,17.5582373 12.7866667,17.5628266 12.7833531,17.5599583 C12.7745168,17.5473377 12.77286,17.5490587 12.7557396,17.5456167 C12.7446943,17.5421747 12.7325444,17.5352907 12.7137673,17.5295541 C12.7016174,17.5278331 12.704931,17.5175072 12.7005128,17.5157862 C12.6767653,17.5089022 12.6425247,17.5123442 12.6171203,17.5020183 C12.6138067,17.4997236 12.6138067,17.4893977 12.6038659,17.4876767 C12.5745957,17.480219 12.5613412,17.4664511 12.5342801,17.4578462 C12.4254832,17.4314576 12.2918343,17.364339 12.1852465,17.3132829 C12.1747535,17.3081199 12.1581854,17.306399 12.144931,17.299515 C12.1360947,17.296073 12.1228402,17.2748475 12.1156607,17.2714055 C12.1068245,17.2656688 12.0560158,17.2691108 12.046075,17.2553429 C12.0394477,17.2467379 12.0041026,17.2289544 11.9770414,17.2128918 C11.9682051,17.2077288 11.9582643,17.1882243 11.949428,17.1830613 C11.9444576,17.1813403 11.9240237,17.1882243 11.9207101,17.1830613 C11.9207101,17.1813403 11.9240237,17.1710143 11.9207101,17.1687197 C11.8969625,17.1549518 11.8632742,17.1549518 11.8378698,17.1411838 C11.8290335,17.1354472 11.8229586,17.1199583 11.8108087,17.1107797 C11.7887179,17.0987327 11.7461933,17.0757862 11.7125049,17.0545606 C11.7009073,17.0459557 11.6953846,17.0316141 11.6854438,17.0247301 C11.6804734,17.0212881 11.6616963,17.0298931 11.6567258,17.0247301 C11.6462327,17.0109622 11.6313215,17.0069465 11.6164103,16.9966206 C11.6059172,16.9897366 11.5970809,16.9736741 11.58714,16.9667901 C11.5766469,16.9599061 11.5567653,16.9616271 11.5468245,16.9530222 C11.539645,16.9472855 11.5379882,16.9283546 11.5330178,16.924339 C11.5197633,16.914013 11.502643,16.920897 11.4904931,16.9088501 C11.4855227,16.9036871 11.4816568,16.8841825 11.4772387,16.8807405 C11.463432,16.8715619 11.4468639,16.8732829 11.434714,16.866399 C11.4297436,16.862957 11.4231164,16.8468944 11.4076529,16.852631 C11.3551874,16.975395 11.3888757,17.1882243 11.3789349,17.357455 C11.3756213,17.3769596 11.3855621,17.3804016 11.3938462,17.3855645 C11.3971598,17.3890065 11.4043393,17.3976115 11.4076529,17.4016271 C11.4446548,17.4280156 11.4960158,17.4526832 11.5330178,17.5020183 C11.539645,17.5123442 11.5551085,17.5209492 11.5600789,17.5295541 C11.5689152,17.5438957 11.5650493,17.5582373 11.5733333,17.5737262 C11.5766469,17.5806102 11.6003945,17.5966728 11.6020513,17.6035567 C11.6059172,17.6144563 11.5943195,17.6528918 11.6020513,17.6597757 C11.6020513,17.6614967 11.6164103,17.6597757 11.6164103,17.6597757 C11.624142,17.7217314 11.6142012,17.795734 11.6020513,17.8485111 C11.5766469,17.9431656 11.5037475,18.0102842 11.4485207,18.0785502 C11.4413412,18.1089544 11.4684024,18.1106754 11.4772387,18.1227223 C11.4805523,18.1278853 11.4722682,18.1473898 11.4772387,18.1508318 C11.4805523,18.1542738 11.502643,18.1611578 11.5037475,18.1668944 C11.5142406,18.1841043 11.5092702,18.2036089 11.5175542,18.2248344 C11.5214201,18.232292 11.5313609,18.2231134 11.5330178,18.239176 C11.5330178,18.2581069 11.5584221,18.2615489 11.5600789,18.2810535 C11.5600789,18.295395 11.5749901,18.3200626 11.58714,18.3395671 C11.5959763,18.3533351 11.6208284,18.3940652 11.6296647,18.4256167 C11.6401578,18.4709361 11.6517554,18.5030613 11.6716371,18.5558383 C11.6732939,18.5627223 11.683787,18.5558383 11.6854438,18.5713272 C11.6854438,18.5753429 11.683787,18.5822269 11.6854438,18.5856688 C11.6904142,18.6000104 11.6937278,18.6086154 11.6992505,18.6275463 C11.7025641,18.6418879 11.7075345,18.6648344 11.7125049,18.68606 C11.7174753,18.7015489 11.720789,18.7210535 11.7263116,18.744 C11.7296252,18.752605 11.7412229,18.7577679 11.7412229,18.7577679 C11.7484024,18.7950561 11.7461933,18.8352125 11.7550296,18.8742216 C11.7550296,18.8776636 11.768284,18.8759426 11.768284,18.8885632 C11.7721499,18.9373246 11.7854043,18.9832177 11.7975542,19.0463207 C11.7975542,19.0572203 11.7936884,19.0681199 11.7975542,19.0767249 C11.8008679,19.0927875 11.805286,19.1168814 11.8108087,19.1627744 C11.8141223,19.2103885 11.8312426,19.2717705 11.8378698,19.3371682 C11.8583037,19.5041043 11.8511243,19.683661 11.8511243,19.8701017 C11.8378698,19.9475463 11.7771203,19.8316662 11.7550296,19.8138827 C11.7141617,19.7765945 11.6716371,19.750206 11.6429191,19.7261121 C11.58714,19.7347171 11.5672584,19.7943781 11.5330178,19.8276506 C11.4960158,19.8614967 11.4601183,19.8982112 11.4076529,19.9142738 C11.3364103,19.8574811 11.282288,19.7823312 11.2127022,19.7261121 C11.1143984,19.7593846 11.0906509,19.8838696 10.9752268,19.9142738 C10.9807495,19.8838696 10.9349112,19.9039478 10.92,19.8861643 C10.8874162,19.8437132 10.8233531,19.7823312 10.7808284,19.7261121 C10.7300197,19.7295541 10.7062722,19.7960991 10.670927,19.8276506 C10.6587771,19.8368292 10.64,19.8316662 10.6284024,19.8419922 C10.623432,19.8454342 10.5831164,19.9263207 10.5593688,19.8861643 C10.563787,19.741601 10.5538462,19.627442 10.5726233,19.4811578 C10.5759369,19.4582112 10.5842209,19.4547692 10.5858777,19.4375593 C10.594714,19.3423312 10.6046548,19.2562816 10.6145957,19.1765424 C10.6201183,19.1329439 10.6129389,19.1065554 10.6284024,19.0463207 C10.6383432,19.0027223 10.6554635,18.9006102 10.670927,18.8300495 C10.6753452,18.800219 10.6891519,18.7755515 10.6979882,18.744 C10.7046154,18.7141695 10.7029586,18.6717184 10.7112426,18.6436089 C10.7128994,18.6401669 10.7228402,18.6384459 10.724497,18.6275463 C10.7333333,18.5977158 10.744931,18.5770639 10.7537673,18.5414967 C10.7554241,18.5328918 10.7504536,18.5202712 10.7537673,18.5133872 C10.7570809,18.5047823 10.7791716,18.4904407 10.7808284,18.4835567 C10.784142,18.4766728 10.7791716,18.4640522 10.7808284,18.4554472 C10.784142,18.4411056 10.7996055,18.423322 10.8100986,18.3975072 C10.8250099,18.3550561 10.8299803,18.3286675 10.8504142,18.297116 C10.8669822,18.2707275 10.8857594,18.232292 10.9061933,18.1950039 C10.9266272,18.1582894 10.9437475,18.1192803 10.9752268,18.0946128 C10.9741223,18.0366728 10.9061933,18.0171682 10.8791321,17.9787327 C10.8570414,17.9483286 10.8399211,17.9098931 10.8233531,17.862279 C10.821144,17.857116 10.8266667,17.8376115 10.8233531,17.8341695 C10.7896647,17.804339 10.8117554,17.6265033 10.8366075,17.5874941 C10.852071,17.5651213 10.880789,17.5020183 10.9061933,17.4733351 C10.9415385,17.4348996 10.9857199,17.4136741 11.0183037,17.3855645 L11.0183037,14.1655906 C11.0078107,14.1392021 10.9586588,14.1323181 10.9349112,14.1214185 C10.9095069,14.1105189 10.8487574,14.0806884 10.8100986,14.0634785 C10.7742012,14.0474159 10.7316765,14.035369 10.6979882,14.0210274 C10.6913609,14.0175854 10.6990927,14.0072595 10.6841815,14.0049648 C10.6725838,14.0049648 10.6333728,13.9894759 10.6145957,13.9774289 C10.6096252,13.9734133 10.6013412,13.9630874 10.6013412,13.9630874 C10.5726233,13.9487458 10.526785,13.9470248 10.5030375,13.9332568 C10.4980671,13.9315359 10.4997239,13.9240782 10.489783,13.9189153 C10.4538856,13.9034263 10.4152268,13.8925267 10.3776726,13.8747432 C10.3710454,13.8730222 10.3793294,13.8626962 10.3638659,13.8609752 C10.3351479,13.8592542 10.3202367,13.8506493 10.2948323,13.8328657 C10.2832347,13.8236871 10.2456805,13.8208188 10.2119921,13.8030352 C10.2048126,13.8013142 10.2119921,13.7904146 10.1959763,13.7886936 C10.1899014,13.7886936 10.1777515,13.7783677 10.1689152,13.774352 C10.0253254,13.711249 9.88284024,13.651588 9.73869822,13.5861904 C9.72047337,13.5793064 9.70335306,13.5672595 9.6834714,13.5586545 C9.66303748,13.5494759 9.64757396,13.5529179 9.62714004,13.5443129 C9.62051282,13.5408709 9.62879684,13.5299713 9.6138856,13.5282503 C9.59345168,13.5282503 9.58295858,13.5018618 9.55755424,13.5001408 C9.52552268,13.4984198 9.4609073,13.4617053 9.41893491,13.4422008 C9.39850099,13.4335958 9.38193294,13.4209752 9.36315582,13.4140913 C9.34216963,13.4049126 9.32891519,13.4089283 9.30682446,13.3997497 C9.30019724,13.3963077 9.30903353,13.3859817 9.29357002,13.3842608 C9.28142012,13.3842608 9.24276134,13.3681982 9.22453649,13.3561512 C9.21901381,13.3544302 9.21017751,13.3418096 9.21017751,13.3418096 C9.18642998,13.3314837 9.15936884,13.3349257 9.14114398,13.3280417 C9.1339645,13.3240261 9.14114398,13.3137001 9.12568047,13.3119791 C9.11905325,13.3119791 9.10745562,13.3016532 9.09861933,13.2976375 C9.06327416,13.2821486 9.02074951,13.269528 8.98706114,13.2557601 C8.97988166,13.2523181 8.98871795,13.2414185 8.97325444,13.2396975 C8.94453649,13.2379765 8.92907298,13.2293716 8.90366864,13.211588 C8.89207101,13.204704 8.85341223,13.1978201 8.8208284,13.1817575 C8.81364892,13.1800365 8.8208284,13.1691369 8.80757396,13.1674159 C8.79873767,13.1674159 8.78714004,13.15709 8.77830375,13.153648 C8.72252465,13.1289804 8.67005917,13.1060339 8.61262327,13.0813664 C8.59218935,13.0727614 8.55684418,13.0658774 8.52812623,13.0532568 C8.52094675,13.0498149 8.52978304,13.0394889 8.51376726,13.0371943 C8.50934911,13.0371943 8.48394477,13.0285893 8.47179487,13.0234263 C8.43313609,13.0073638 8.34863905,12.9614707 8.29230769,12.9373768 C8.27187377,12.9281982 8.23597633,12.9213142 8.20946746,12.9069726 C8.20284024,12.9052516 8.20946746,12.8949257 8.19400394,12.8932047 C8.18903353,12.8932047 8.16362919,12.8823051 8.15313609,12.8788631 C8.12938856,12.8702581 8.06698225,12.8387066 8.02832347,12.8209231 C7.88418146,12.7578201 7.74335306,12.6889804 7.59589744,12.6327614 C7.61633136,12.5937523 7.65885602,12.5885893 7.69420118,12.5765424 C7.72844181,12.5622008 7.77096647,12.5587588 7.80410256,12.5467119 C7.81128205,12.5444172 7.80410256,12.5323703 7.82011834,12.5323703 C7.82287968,12.5323703 7.83005917,12.5340913 7.83337278,12.5323703 C7.84828402,12.5254863 7.86761341,12.5168814 7.90295858,12.5042608 C7.92670611,12.4956558 7.95708087,12.4864772 7.98524655,12.4744302 C7.99408284,12.4709883 7.99739645,12.4618096 7.99960552,12.4600887 C8.03495069,12.4480417 8.07416174,12.4445997 8.11116371,12.4319791 C8.11613412,12.4285372 8.11116371,12.4182112 8.12441815,12.4164902 C8.12773176,12.4164902 8.13491124,12.4182112 8.13822485,12.4164902 C8.20781065,12.387807 8.32820513,12.3476506 8.41767258,12.3160991 C8.43810651,12.3092151 8.47179487,12.2983155 8.50051282,12.2862686 C8.50934911,12.2822529 8.51211045,12.273648 8.51376726,12.271927 C8.55353057,12.2575854 8.58887574,12.2575854 8.62642998,12.2438175 C8.63084813,12.2420965 8.62642998,12.2300495 8.63968442,12.2300495 C8.64299803,12.2283286 8.65017751,12.2300495 8.65293886,12.2300495 C8.67668639,12.2191499 8.73467456,12.205382 8.77830375,12.1858774 C8.78548323,12.1841565 8.77830375,12.1721095 8.79211045,12.1721095 C8.79542406,12.1721095 8.80426036,12.1732568 8.80757396,12.1721095 C8.81585799,12.1680939 8.81751479,12.1577679 8.8208284,12.1577679 C8.85506903,12.1434263 8.89538462,12.1399844 8.93072978,12.1273638 C8.96331361,12.1170378 8.99865878,12.0958123 9.02903353,12.0854863 C9.09861933,12.0573768 9.16820513,12.0378722 9.23779093,12.0114837 C9.24276134,12.0097627 9.23779093,11.9994368 9.25104536,11.9977158 C9.25435897,11.9977158 9.26153846,11.9994368 9.26485207,11.9977158 C9.27810651,11.9925528 9.30516765,11.9799322 9.33443787,11.9696063 C9.37143984,11.9569857 9.41009862,11.9535437 9.44599606,11.9392021 C9.45096647,11.9374811 9.44599606,11.9271551 9.45925049,11.9254342 C9.4730572,11.9254342 9.51226824,11.9099452 9.5442998,11.8973246 C9.63266272,11.8617575 9.7425641,11.821601 9.84915187,11.7808709 C9.87069034,11.773987 9.90493097,11.763661 9.93199211,11.7527614 C9.94027613,11.7493194 9.94358974,11.7389935 9.94745562,11.7372725 C9.98169625,11.7246519 10.0236686,11.7229309 10.057357,11.7085893 C10.0639842,11.7068683 10.057357,11.6948214 10.0728205,11.6948214 C10.0761341,11.6948214 10.0827613,11.6965424 10.086075,11.6948214 C10.1098225,11.6839218 10.1661538,11.6701538 10.2119921,11.6506493 C10.2164103,11.6489283 10.2103353,11.6386023 10.2252465,11.6368814 C10.2285602,11.6368814 10.2357396,11.6386023 10.238501,11.6368814 C10.3588955,11.5875463 10.5284418,11.5296063 10.670927,11.4785502 C10.7029586,11.4659296 10.7333333,11.446425 10.767574,11.4343781 C10.8012623,11.4217575 10.8432347,11.4188892 10.8791321,11.4062686 C10.8841026,11.4045476 10.8791321,11.3925007 10.8923866,11.390206 C10.8962525,11.390206 10.9028797,11.3925007 10.9061933,11.390206 C10.92,11.385043 10.9470611,11.3747171 10.9752268,11.3620965 C10.9989744,11.3534915 11.0299014,11.3466076 11.0586193,11.333987 C11.1757002,11.2846519 11.3480079,11.2267119 11.4904931,11.1739348 C11.4960158,11.1722138 11.4904931,11.1618879 11.5037475,11.1595932 C11.5076134,11.1595932 11.5142406,11.1618879 11.5175542,11.1595932 C11.5468245,11.1475463 11.6296647,11.1303364 11.6716371,11.1016532 C11.6887574,11.0913272 11.7550296,11.0735437 11.7975542,11.0597757 C11.8312426,11.0471551 11.8616174,11.0276506 11.8942012,11.0156037 C11.9648915,10.9892151 12.0328205,10.9697106 12.101854,10.943322 C12.124497,10.9364381 12.1581854,10.9261121 12.1852465,10.9152125 C12.1940828,10.9117705 12.1968442,10.9014446 12.2001578,10.8997236 C12.2343984,10.887103 12.274714,10.885382 12.3100592,10.8710404 C12.3155819,10.8698931 12.3100592,10.8572725 12.326075,10.8572725 C12.3293886,10.8572725 12.3360158,10.8589935 12.3393294,10.8572725 C12.3514793,10.8521095 12.3779882,10.8394889 12.4089152,10.827442 C12.4326627,10.818837 12.4630375,10.8113794 12.4917554,10.7993325 C12.5000394,10.7958905 12.5033531,10.7849909 12.5055621,10.7849909 C12.5409073,10.7712229 12.583432,10.767781 12.6171203,10.7551604 C12.6220907,10.7534394 12.6171203,10.7408188 12.630927,10.7408188 C12.6336884,10.7408188 12.6408679,10.7431134 12.6441815,10.7408188 C12.7463511,10.6989413 12.9037475,10.6427223 13.0202761,10.5968292 C13.0456805,10.5859296 13.0760552,10.5859296 13.1031164,10.5687197 C13.1218935,10.5566728 13.1876134,10.5388892 13.2290335,10.5245476 C13.2627219,10.5125007 13.2930966,10.4929961 13.326785,10.4809492 C13.6012623,10.3799844 13.8773964,10.2870508 14.1469034,10.1780548 C14.1734122,10.1671551 14.1756213,10.1654342 14.2164892,10.1642868 C14.2446548,10.1941173 14.2888363,10.1918227 14.3280473,10.2061643 C14.33357,10.2078853 14.3280473,10.2205059 14.3413018,10.2222269 C14.3451677,10.2222269 14.3517949,10.2205059 14.3556607,10.2222269 C14.4246943,10.2503364 14.5467456,10.2904928 14.6334517,10.3220443 C14.66714,10.3346649 14.7008284,10.3541695 14.7312032,10.3662164 C14.7687574,10.378837 14.8041026,10.3799844 14.8411045,10.3943259 C14.846075,10.3960469 14.8411045,10.4086675 14.856568,10.4086675 C14.8604339,10.4086675 14.8665089,10.4069465 14.8698225,10.4086675 C14.8858383,10.4155515 14.9040631,10.4247301 14.9394083,10.438498 C14.9631558,10.447103 14.9940828,10.453987 15.0228008,10.4666076 C15.0310848,10.4700495 15.0343984,10.4809492 15.0360552,10.4809492 C15.0714004,10.4947171 15.1144773,10.4981591 15.1481657,10.5107797 C15.1531361,10.5125007 15.1481657,10.5228266 15.1619724,10.5245476 C15.1647337,10.5245476 15.1719132,10.5228266 15.1752268,10.5245476 C15.2448126,10.5526571 15.3652071,10.5933872 15.4546746,10.6249387 C15.4883629,10.6375593 15.5209467,10.6564902 15.5513215,10.6691108 C15.5866667,10.6828787 15.6253254,10.6845997 15.6628797,10.6972203 C15.6684024,10.7006623 15.6628797,10.7109883 15.6766864,10.7132829 C15.6904931,10.7132829 15.7274951,10.7287718 15.7595266,10.7408188 C15.7816174,10.7482764 15.8153057,10.7586023 15.8423669,10.769502 C15.9577909,10.8165424 16.1356213,10.878498 16.2742406,10.9295541 C16.2797633,10.9312751 16.2742406,10.943322 16.2880473,10.943322 C16.2913609,10.943322 16.2979882,10.941601 16.301854,10.943322 C16.330572,10.9559426 16.4134122,10.9737262 16.4553846,11.0012621 C16.4730572,11.0121617 16.5387771,11.0299452 16.5813018,11.0437132 C16.6149901,11.0563338 16.6437081,11.0752647 16.6779487,11.0878853 C16.7458777,11.1125528 16.8187771,11.1332047 16.8861538,11.1595932 C16.9082446,11.1687718 16.9419329,11.1773768 16.9689941,11.1899974 C16.9778304,11.1934394 16.9805917,11.2020443 16.9839053,11.2037653 C17.018146,11.2163859 17.0606706,11.2198279 17.0949112,11.2318748 C17.0993294,11.2335958 17.0949112,11.2462164 17.1098225,11.2462164 L17.1230769,11.2462164 C17.1352268,11.2513794 17.162288,11.264 17.1926627,11.2760469 C17.2164103,11.2846519 17.246785,11.2921095 17.2760552,11.3041565 C17.2942801,11.3127614 17.3588955,11.332266 17.4008679,11.3483286 C17.4058383,11.3500495 17.4008679,11.3620965 17.4146746,11.3620965 C17.4179882,11.3620965 17.4246154,11.3603755 17.427929,11.3620965 C17.4411834,11.3678331 17.4687968,11.3798801 17.4975148,11.390206 C17.526785,11.4011056 17.5704142,11.4062686 17.5958185,11.4200365 C17.6013412,11.4240522 17.5974753,11.4309361 17.609073,11.4343781 C17.648284,11.4487197 17.6858383,11.4504407 17.7211834,11.4642086 C17.7261538,11.4659296 17.7211834,11.4768292 17.7349901,11.4785502 C17.7383037,11.4785502 17.744931,11.4768292 17.7482446,11.4785502 C17.7648126,11.4854342 17.784142,11.4940391 17.8178304,11.5066597 C17.8415779,11.5152647 17.8719527,11.5244433 17.9023274,11.5364902 C17.9111637,11.5399322 17.9128205,11.5491108 17.9161341,11.5508318 C18.0530966,11.6013142 18.193925,11.6420443 18.3330966,11.6948214 C18.3380671,11.6965424 18.3330966,11.7085893 18.3463511,11.7085893 C18.3496647,11.7085893 18.3568442,11.7068683 18.3601578,11.7085893 C18.3839053,11.7194889 18.4413412,11.7332568 18.4849704,11.7527614 C18.4921499,11.7544824 18.4849704,11.765382 18.4987771,11.767103 C18.5037475,11.767103 18.5103748,11.765382 18.5142406,11.767103 C18.6362919,11.8181591 18.8003156,11.8709361 18.9444576,11.9254342 C18.978146,11.9374811 19.0085207,11.9569857 19.0427613,11.9696063 C19.0764497,11.9816532 19.1189744,11.9850952 19.1526627,11.9977158 C19.1576331,11.9994368 19.1526627,12.0114837 19.167574,12.0114837 C19.1797239,12.0132047 19.2183826,12.0292673 19.2509665,12.0413142 C19.2714004,12.0487718 19.3067456,12.0590978 19.3338067,12.0694237 C19.3829586,12.0906493 19.4829191,12.1313794 19.5558185,12.1577679 C19.5762525,12.1646519 19.616568,12.1698149 19.6403156,12.1858774 C19.6425247,12.1875984 19.6541223,12.1996454 19.6541223,12.1996454 C19.6861538,12.212266 19.7319921,12.215708 19.7656805,12.2300495 C19.7706509,12.2317705 19.7645759,12.2420965 19.7794872,12.2438175 C19.7828008,12.2438175 19.789428,12.2420965 19.7927416,12.2438175 C19.8065483,12.2489804 19.8319527,12.261601 19.8623274,12.271927 C19.8827613,12.2805319 19.9147929,12.3000365 19.9457199,12.3017575 C19.9738856,12.3040522 19.9915582,12.3212621 20.0153057,12.329867 C20.0368442,12.3390456 20.0484418,12.3356037 20.0705325,12.3442086 C20.1588955,12.3792021 20.2693491,12.4199322 20.3775937,12.4600887 C20.5112426,12.5111447 20.6498619,12.5570378 20.7801972,12.6184198" id="Fill-1" fill="#575756"></path>
                <polygon id="Stroke-3" stroke="#575756" points="0.155518738 21.9453872 14.071574 0.146169492 27.9881815 21.9453872"></polygon>
            </g>
        </g>
    </g>
</svg>