<?xml version="1.0" encoding="UTF-8"?>
<svg width="30px" height="30px" viewBox="0 0 30 30" version="1.1" xmlns="http://www.w3.org/2000/svg" xmlns:xlink="http://www.w3.org/1999/xlink">
    <!-- Generator: Sketch 41.2 (35397) - http://www.bohemiancoding.com/sketch -->
    <title>Desktop</title>
    <desc>Created with Sketch.</desc>
    <defs></defs>
    <g id="Page-1" stroke="none" stroke-width="1" fill="none" fill-rule="evenodd">
        <g id="Desktop">
            <g id="Page-1" transform="translate(1.000000, 6.000000)">
                <polygon id="Stroke-1" stroke="#575756" points="0.146410526 19.9503378 14.0716211 0.127172414 27.9973842 19.9503378"></polygon>
                <path d="M14.5159368,12.3709505 L15.4327526,11.5055128 C15.4327526,11.5055128 14.8989105,10.6771132 15.6576737,9.96087091 C15.6576737,9.96087091 16.5755947,9.01770557 17.4227789,9.68230327 L16.5755947,10.4601017 L17.2851737,11.1241777 L18.1948053,10.3296861 C18.1948053,10.3296861 19.0005421,11.2754598 17.8997,12.0271751 C17.8997,12.0271751 17.0337263,12.742374 16.1080684,12.2420999 L15.2581211,13.0569363 L13.0509105,15.2124447 C13.0509105,15.2124447 13.5051737,16.4472193 12.6303579,17.0826039 C12.6303579,17.0826039 11.7135421,17.7440716 11.0387789,17.303267 L11.8865158,16.3115871 L11.2117526,15.6532493 L10.0352,16.4967772 C10.0352,16.4967772 9.68483158,15.2781742 10.6044105,14.6735676 C10.6044105,14.6735676 11.1294105,14.3016225 12.2153316,14.4612511 L14.5159368,12.3709505 Z" id="Stroke-3" stroke="#575756"></path>
                <polygon id="Fill-5" fill="#FEFEFE" points="16.1635526 16.0213342 11.9718421 12.0342697 13.2047632 10.8787878 17.3970263 14.8653307"></polygon>
                <path d="M12.0425789,11.6072891 L13.307,12.8159805 C13.307,12.8159805 13.2500789,13.0663784 13.4341053,13.2406136 L17.402,17.0294465 L18.5210789,15.9835137 L14.5299737,12.3584828 C14.5299737,12.3584828 14.4028684,12.1842476 14.0116053,12.2165906 L12.7427632,10.9609496 C12.7427632,10.9609496 13.0190789,10.6526472 12.9848158,10.444504 C12.9848158,10.444504 13.6048684,9.47786384 14.1066579,9.36205482 C14.1243421,9.35735986 14.1431316,9.35475155 14.1608158,9.35318656 C14.1608158,9.35318656 12.95,8.4157595 10.9660526,10.7955827 L10.9660526,11.0407639 L10.5388684,11.4116658 L10.3719737,11.389756 L9.92821053,11.7825676 L10.8621579,12.6527003 L11.2777368,12.3037082 L11.2545263,12.0533103 L11.6695526,11.69858 L12.0425789,11.6072891 Z" id="Stroke-7" stroke="#575756"></path>
            </g>
        </g>
    </g>
</svg>